# xmcd
#
# Track frame offsets:
#	150
#	10062
#	25395
#	36832
#	47502
#	59395
#	71852
#	88790
#	98332
#	110997
#	122457
#	138780
#	152575
#
# Disc length: 2214 seconds
#
# Revision: 1
# Processed by: cddbd v1.5.1PL0 Copyright (c) Steve Scherf et al.
# Submitted via: EasyCDDAExtractor 6.0.0.1
#
DISCID=a408a40d
DTITLE=Twins - Champagne and Bourbon
DYEAR=1989
DGENRE=Country
TTITLE0=If I Ever Want Another Love
TTITLE1=The Rythm and Romance
TTITLE2=Red Bandana
TTITLE3=From Alaska To L.A.
TTITLE4=I Don't Wana Be A Cowboy Anymore
TTITLE5=Goodhearted Woman
TTITLE6=You Don't Make It Esier
TTITLE7=One More Last Tequila
TTITLE8=Same Old Line
TTITLE9=So Many Lovers Come And Go
TTITLE10=Indian Summer
TTITLE11=After Sweet Menories
TTITLE12=Dixie Road
EXTD=Danish Champions in Country Music 1989 - Dreamland Studio, Nibe Denmark -
EXTD=Nov.dec. 1988 - Feb./Marts 1989
EXTT0=
EXTT1=
EXTT2=
EXTT3=
EXTT4=
EXTT5=
EXTT6=
EXTT7=
EXTT8=
EXTT9=
EXTT10=
EXTT11=
EXTT12=
PLAYORDER=
